<mxfile host="app.diagrams.net" agent="Mozilla/5.0 (Windows NT 10.0; Win64; x64; rv:129.0) Gecko/20100101 Firefox/129.0" version="24.7.8">
  <diagram id="R2lEEEUBdFMjLlhIrx00" name="Page-1">
    <mxGraphModel dx="2238" dy="286" grid="1" gridSize="10" guides="1" tooltips="1" connect="1" arrows="1" fold="1" page="1" pageScale="1" pageWidth="850" pageHeight="1100" math="0" shadow="0" extFonts="Permanent Marker^https://fonts.googleapis.com/css?family=Permanent+Marker">
      <root>
        <mxCell id="0" />
        <mxCell id="1" parent="0" />
        <mxCell id="eeAkiIV6xgWavita2J4p-1" value="user" style="shape=table;startSize=32;container=1;collapsible=1;childLayout=tableLayout;fixedRows=1;rowLines=0;fontStyle=1;align=center;resizeLast=1;html=1;rounded=1;fillColor=#f5f5f5;fontColor=#333333;strokeColor=#666666;arcSize=4;" vertex="1" parent="1">
          <mxGeometry x="-1640" y="40.00362573099417" width="175.78953488372093" height="184" as="geometry" />
        </mxCell>
        <mxCell id="eeAkiIV6xgWavita2J4p-2" value="" style="shape=tableRow;horizontal=0;startSize=0;swimlaneHead=0;swimlaneBody=0;fillColor=none;collapsible=0;dropTarget=0;points=[[0,0.5],[1,0.5]];portConstraint=eastwest;top=0;left=0;right=0;bottom=1;" vertex="1" parent="eeAkiIV6xgWavita2J4p-1">
          <mxGeometry y="32" width="175.78953488372093" height="30" as="geometry" />
        </mxCell>
        <mxCell id="eeAkiIV6xgWavita2J4p-3" value="PK" style="shape=partialRectangle;connectable=0;fillColor=none;top=0;left=0;bottom=0;right=0;fontStyle=1;overflow=hidden;whiteSpace=wrap;html=1;" vertex="1" parent="eeAkiIV6xgWavita2J4p-2">
          <mxGeometry width="30" height="30" as="geometry">
            <mxRectangle width="30" height="30" as="alternateBounds" />
          </mxGeometry>
        </mxCell>
        <mxCell id="eeAkiIV6xgWavita2J4p-4" value="id" style="shape=partialRectangle;connectable=0;fillColor=none;top=0;left=0;bottom=0;right=0;align=left;spacingLeft=6;fontStyle=5;overflow=hidden;whiteSpace=wrap;html=1;" vertex="1" parent="eeAkiIV6xgWavita2J4p-2">
          <mxGeometry x="30" width="145.78953488372093" height="30" as="geometry">
            <mxRectangle width="145.78953488372093" height="30" as="alternateBounds" />
          </mxGeometry>
        </mxCell>
        <mxCell id="eeAkiIV6xgWavita2J4p-5" value="" style="shape=tableRow;horizontal=0;startSize=0;swimlaneHead=0;swimlaneBody=0;fillColor=none;collapsible=0;dropTarget=0;points=[[0,0.5],[1,0.5]];portConstraint=eastwest;top=0;left=0;right=0;bottom=0;" vertex="1" parent="eeAkiIV6xgWavita2J4p-1">
          <mxGeometry y="62" width="175.78953488372093" height="30" as="geometry" />
        </mxCell>
        <mxCell id="eeAkiIV6xgWavita2J4p-6" value="" style="shape=partialRectangle;connectable=0;fillColor=none;top=0;left=0;bottom=0;right=0;editable=1;overflow=hidden;whiteSpace=wrap;html=1;" vertex="1" parent="eeAkiIV6xgWavita2J4p-5">
          <mxGeometry width="30" height="30" as="geometry">
            <mxRectangle width="30" height="30" as="alternateBounds" />
          </mxGeometry>
        </mxCell>
        <mxCell id="eeAkiIV6xgWavita2J4p-7" value="name" style="shape=partialRectangle;connectable=0;fillColor=none;top=0;left=0;bottom=0;right=0;align=left;spacingLeft=6;overflow=hidden;whiteSpace=wrap;html=1;" vertex="1" parent="eeAkiIV6xgWavita2J4p-5">
          <mxGeometry x="30" width="145.78953488372093" height="30" as="geometry">
            <mxRectangle width="145.78953488372093" height="30" as="alternateBounds" />
          </mxGeometry>
        </mxCell>
        <mxCell id="eeAkiIV6xgWavita2J4p-8" value="" style="shape=tableRow;horizontal=0;startSize=0;swimlaneHead=0;swimlaneBody=0;fillColor=none;collapsible=0;dropTarget=0;points=[[0,0.5],[1,0.5]];portConstraint=eastwest;top=0;left=0;right=0;bottom=0;" vertex="1" parent="eeAkiIV6xgWavita2J4p-1">
          <mxGeometry y="92" width="175.78953488372093" height="30" as="geometry" />
        </mxCell>
        <mxCell id="eeAkiIV6xgWavita2J4p-9" value="" style="shape=partialRectangle;connectable=0;fillColor=none;top=0;left=0;bottom=0;right=0;editable=1;overflow=hidden;whiteSpace=wrap;html=1;" vertex="1" parent="eeAkiIV6xgWavita2J4p-8">
          <mxGeometry width="30" height="30" as="geometry">
            <mxRectangle width="30" height="30" as="alternateBounds" />
          </mxGeometry>
        </mxCell>
        <mxCell id="eeAkiIV6xgWavita2J4p-10" value="&lt;div&gt;image&lt;/div&gt;" style="shape=partialRectangle;connectable=0;fillColor=none;top=0;left=0;bottom=0;right=0;align=left;spacingLeft=6;overflow=hidden;whiteSpace=wrap;html=1;" vertex="1" parent="eeAkiIV6xgWavita2J4p-8">
          <mxGeometry x="30" width="145.78953488372093" height="30" as="geometry">
            <mxRectangle width="145.78953488372093" height="30" as="alternateBounds" />
          </mxGeometry>
        </mxCell>
        <mxCell id="eeAkiIV6xgWavita2J4p-11" value="" style="shape=tableRow;horizontal=0;startSize=0;swimlaneHead=0;swimlaneBody=0;fillColor=none;collapsible=0;dropTarget=0;points=[[0,0.5],[1,0.5]];portConstraint=eastwest;top=0;left=0;right=0;bottom=0;" vertex="1" parent="eeAkiIV6xgWavita2J4p-1">
          <mxGeometry y="122" width="175.78953488372093" height="30" as="geometry" />
        </mxCell>
        <mxCell id="eeAkiIV6xgWavita2J4p-12" value="" style="shape=partialRectangle;connectable=0;fillColor=none;top=0;left=0;bottom=0;right=0;editable=1;overflow=hidden;whiteSpace=wrap;html=1;" vertex="1" parent="eeAkiIV6xgWavita2J4p-11">
          <mxGeometry width="30" height="30" as="geometry">
            <mxRectangle width="30" height="30" as="alternateBounds" />
          </mxGeometry>
        </mxCell>
        <mxCell id="eeAkiIV6xgWavita2J4p-13" value="email" style="shape=partialRectangle;connectable=0;fillColor=none;top=0;left=0;bottom=0;right=0;align=left;spacingLeft=6;overflow=hidden;whiteSpace=wrap;html=1;" vertex="1" parent="eeAkiIV6xgWavita2J4p-11">
          <mxGeometry x="30" width="145.78953488372093" height="30" as="geometry">
            <mxRectangle width="145.78953488372093" height="30" as="alternateBounds" />
          </mxGeometry>
        </mxCell>
        <mxCell id="eeAkiIV6xgWavita2J4p-14" value="" style="shape=tableRow;horizontal=0;startSize=0;swimlaneHead=0;swimlaneBody=0;fillColor=none;collapsible=0;dropTarget=0;points=[[0,0.5],[1,0.5]];portConstraint=eastwest;top=0;left=0;right=0;bottom=0;" vertex="1" parent="eeAkiIV6xgWavita2J4p-1">
          <mxGeometry y="152" width="175.78953488372093" height="30" as="geometry" />
        </mxCell>
        <mxCell id="eeAkiIV6xgWavita2J4p-15" value="" style="shape=partialRectangle;connectable=0;fillColor=none;top=0;left=0;bottom=0;right=0;editable=1;overflow=hidden;whiteSpace=wrap;html=1;" vertex="1" parent="eeAkiIV6xgWavita2J4p-14">
          <mxGeometry width="30" height="30" as="geometry">
            <mxRectangle width="30" height="30" as="alternateBounds" />
          </mxGeometry>
        </mxCell>
        <mxCell id="eeAkiIV6xgWavita2J4p-16" value="emailVerified" style="shape=partialRectangle;connectable=0;fillColor=none;top=0;left=0;bottom=0;right=0;align=left;spacingLeft=6;overflow=hidden;whiteSpace=wrap;html=1;" vertex="1" parent="eeAkiIV6xgWavita2J4p-14">
          <mxGeometry x="30" width="145.78953488372093" height="30" as="geometry">
            <mxRectangle width="145.78953488372093" height="30" as="alternateBounds" />
          </mxGeometry>
        </mxCell>
      </root>
    </mxGraphModel>
  </diagram>
</mxfile>
